# Blender v2.83.2 OBJ File: 'ForsetLevelV2.blend'
# www.blender.org
mtllib ForsetLevelV2Nav.mtl
o NavSimple_Plane
v -9.500000 0.595031 6.045455
v 9.500000 0.000000 9.500000
v -9.500000 0.595031 -9.500000
v -8.060072 0.190687 6.428267
v -4.579688 0.633547 4.304036
v -2.296192 0.086756 -0.007015
v 2.353701 0.594988 -3.254054
v 4.258325 0.000000 4.603801
v 5.651391 0.000000 1.964551
v 5.872976 0.000000 -3.940333
v -9.500000 0.000000 9.500000
v 9.500000 0.000000 -9.500000
v 5.469697 0.000000 -9.500000
v -8.081718 0.586457 5.669911
v 6.045454 1.250000 -9.500000
v 6.045455 1.250000 -6.045455
v -6.603981 0.594083 -2.980117
v -2.582436 0.021856 4.797394
v -2.871204 0.295381 2.551808
v -2.394756 0.141823 1.391106
v -2.904254 0.542034 -2.454800
v -4.198589 0.595031 -5.172987
v -0.580092 0.000000 3.442521
v 0.603161 0.000000 4.579635
v 0.142975 0.000000 -2.098706
v -0.048132 0.595031 -2.508459
v 2.590909 0.000000 4.318182
v 4.486002 0.000000 1.658925
v 4.250416 0.592426 -3.865273
v 6.845196 0.000000 -5.139035
v 6.045454 0.000000 -9.500000
v -6.621212 0.595031 3.529816
v -6.050227 0.634078 4.290921
v -5.389449 0.754838 -2.391430
v -5.153927 0.554957 -4.349858
v -1.496266 0.009368 4.678890
v 0.400630 0.596248 -4.715019
v 1.433953 0.000000 0.411375
v 1.670733 0.000000 -0.558069
v 4.059805 0.000000 2.742189
v 4.993711 0.000000 3.826040
v 2.380672 1.250000 -3.251303
v 6.045455 0.000000 -6.045454
v 7.961648 0.000000 0.611742
v 8.020792 0.000000 -4.033532
v 4.893939 0.595031 -9.500000
v 5.009287 0.595031 -4.740143
v 4.893940 0.595031 -5.469699
v 5.331281 0.000000 -5.163083
v 5.884947 0.000000 -5.861877
v 4.791610 0.000000 -2.784039
v -2.867654 1.250000 -2.391749
v 5.234726 0.000000 1.435201
v 4.562756 0.000000 2.655654
v 5.400276 0.000000 2.735093
v 5.064688 0.000000 4.673624
v 2.590909 0.000000 7.196970
v 3.695004 0.595031 -3.300171
v 2.394639 -0.001195 -2.730278
v 2.714165 0.000000 0.464031
v 2.575245 0.000000 -0.584080
v 3.464602 0.000000 3.354681
v 2.082505 0.005688 -2.438484
v 1.985897 0.583145 -2.782689
v -2.909437 1.250000 -0.753139
v 0.595471 0.000000 3.427142
v 1.439394 0.000000 4.318182
v -2.536780 1.250000 1.460988
v 1.439394 0.000000 7.196970
v -0.413161 0.713095 -4.010592
v -0.822604 0.578397 -2.807654
v -0.595471 0.000000 4.610394
v -1.426701 0.590255 -2.649192
v -1.700038 0.010968 0.011105
v -1.444618 0.000000 -0.426951
v -3.315362 0.687942 -4.310041
v -4.010434 0.672643 -3.721500
v -3.854089 0.593820 -2.183444
v -3.803923 0.597092 -1.224732
v -2.959360 0.595031 -0.840752
v -2.695384 0.593415 1.463088
v -4.160995 0.541184 2.391798
v -5.415687 0.597826 0.915464
v -5.414736 0.688489 3.528605
v -5.954904 0.649371 4.873954
v -7.080894 0.189772 6.045314
v -7.325603 0.584433 5.479950
v -9.500000 0.000000 6.621213
v 2.501525 1.250000 -0.628220
v 4.334568 1.250000 4.670404
v 4.426950 1.250000 2.450007
v 2.590909 1.250000 4.318182
v 2.780116 1.250000 0.383800
v 5.643498 1.250000 1.871492
v 0.603161 1.250000 4.579635
v -0.595471 1.250000 4.610394
v 1.439394 1.250000 4.318182
v 1.437860 1.250000 0.440923
v 1.670452 1.250000 -0.557306
v 4.883109 1.250000 3.699275
v 5.326918 1.250000 2.791773
v 4.462555 1.250000 1.668145
v 5.229391 1.250000 1.428713
v 4.336309 1.250000 2.728204
v 5.116354 1.250000 4.627636
v 3.446932 1.250000 3.451850
v 2.590909 1.250000 7.196970
v 1.439394 1.250000 7.196970
v -0.580092 1.250000 3.442521
v 0.595471 1.250000 3.427142
v 4.844518 1.250000 -2.815893
v -2.269919 1.250000 -0.082408
v 0.200627 1.250000 -2.146672
v -0.133112 1.250000 -2.435944
v 3.784520 1.250000 -3.320265
v 5.900561 1.250000 -3.977985
v 6.845196 1.250000 -5.139035
v 5.331281 1.250000 -5.163083
v 5.884947 1.250000 -5.861877
v 2.393546 1.250000 -2.741081
v 2.063531 1.250000 -2.629422
v -0.905252 1.250000 -2.793156
v -1.548367 1.250000 -2.724172
v -1.673245 1.250000 -0.233833
v -3.783834 1.250000 -1.206023
v -3.897948 1.250000 -2.107713
v -6.621212 1.250000 3.529816
v -6.614299 1.250000 -2.938417
v -5.410105 1.250000 -2.398779
v -5.204027 1.250000 -4.228241
v -4.192892 1.250000 -5.176649
v -3.385655 1.250000 -4.352178
v -5.416545 1.250000 3.529816
v 4.893940 1.250000 -5.469700
v 5.009287 1.250000 -4.740143
v 4.893939 1.250000 -9.500000
vt 0.151515 0.303030
vt 0.155108 0.664089
vt 0.157494 0.666773
vt 0.312612 0.724320
vt 0.302961 0.727038
vt 0.289573 0.692339
vt 0.212366 0.635446
vt 0.211980 0.635519
vt 0.212121 0.451832
vt 0.521026 0.574673
vt 0.525046 0.574676
vt 0.424037 0.524795
vt 0.515152 0.303030
vt 0.636364 0.467666
vt 0.576938 0.466930
vt 1.000000 0.000000
vt 0.776576 0.242424
vt 0.636364 0.121212
vt 0.777619 0.289763
vt 1.000000 1.000000
vt 0.921875 0.712595
vt 0.919034 0.467803
vt 0.818182 0.818182
vt 0.818182 1.000000
vt 0.749405 0.636364
vt 0.788135 0.424242
vt 0.818182 0.402453
vt 0.757576 0.787879
vt 0.757576 0.787879
vt 0.757576 1.000000
vt 0.000000 0.000000
vt 0.000000 0.000000
vt 0.000000 0.000000
vt 0.727225 0.697301
vt 0.503549 0.741939
vt 0.407073 0.520707
vt 0.403434 0.506028
vt 0.727273 0.419500
vt 0.575758 0.121212
vt 0.575758 0.272727
vt 0.575758 0.272727
vt 0.787879 0.363636
vt 0.783667 0.363636
vt 0.740113 0.354566
vt 0.636497 0.642459
vt 0.636364 0.523255
vt 0.641198 0.607055
vt 0.696970 0.317792
vt 0.727273 0.333333
vt 0.722690 0.250168
vt 0.636364 0.272727
vt 0.000000 0.000000
vt 0.602231 0.613603
vt 0.606233 0.575758
vt 0.727010 0.418596
vt 0.515152 0.272727
vt 0.739389 0.333333
vt 0.479878 0.707094
vt 0.521985 0.606061
vt 0.473844 0.606990
vt 0.484848 0.303030
vt 0.575758 0.121212
vt 0.421693 0.616894
vt 0.346375 0.616622
vt 0.751280 0.636364
vt 0.363600 0.424292
vt 0.412470 0.260992
vt 0.272727 0.757576
vt 0.333362 0.425653
vt 0.301229 0.575691
vt 0.484848 0.303030
vt 0.484848 0.272727
vt 0.484848 0.272727
vt 0.330618 0.275316
vt 0.285931 0.372125
vt 0.264510 0.275211
vt 0.340488 0.367051
vt 0.120446 0.176767
vt 0.227305 0.737234
vt 0.000000 1.000000
vt 0.212092 0.303182
vt 0.181888 0.272727
vt 0.272808 0.757576
vt 0.121795 0.212300
vt 0.076166 0.200447
vt 0.186584 0.242424
vt 0.075561 0.158099
vt 0.000000 0.181818
vt 0.000000 0.151515
vt 0.818182 0.410263
vt 0.787879 0.424242
vt 0.782223 0.242424
vt 0.769693 0.297263
vt 0.726268 0.246220
vt 0.696970 0.311461
vt 0.799538 0.713957
vt 0.757576 0.757576
vt 0.702656 0.667554
vt 0.605854 0.592503
vt 0.517011 0.606061
vt 0.468396 0.606061
vt 0.363196 0.608421
vt 0.333333 0.538334
vt 0.363636 0.514764
vt 0.349761 0.425763
vt 0.363636 0.508217
vt 0.696970 0.666667
vt 0.228169 0.722435
vt 0.212121 0.303030
vt 0.151515 0.303030
vt 0.787879 0.757576
vt 0.818182 0.818182
vt 0.818182 0.787879
vt 0.818182 0.787879
vt 0.787879 0.757576
vt 0.787879 0.787879
vt 0.787879 0.787879
vt 0.799685 0.709258
vt 0.757576 0.757576
vt 0.578196 0.466257
vt 0.636364 0.475048
vt 0.636364 0.529637
vt 0.575885 0.545455
vt 0.289802 0.606061
vt 0.296164 0.606227
vt 0.302145 0.575758
vt 0.636364 0.272727
vt 0.515152 0.303030
vt 0.636364 0.121212
vt 0.333333 0.546941
vt 0.727273 0.363636
vt 0.417950 0.623207
vt 0.640920 0.606980
vt 0.636468 0.644458
vt 0.000000 0.000000
vt 0.000000 0.000000
vt 0.757576 1.000000
vt 0.575832 0.545455
vt 0.515152 0.272727
vt 0.818182 1.000000
vn -0.9999 -0.0156 -0.0026
vn 0.6384 0.1366 0.7575
vn 0.9991 0.0418 0.0099
vn 0.7251 -0.0070 0.6886
vn 0.0000 1.0000 0.0000
vn -1.0000 0.0000 0.0000
vn 0.0000 0.0000 -1.0000
vn 0.0006 1.0000 0.0019
vn 0.8620 0.0803 0.5006
vn -0.0943 -0.0506 0.9943
vn 0.0011 1.0000 -0.0007
vn -0.0005 1.0000 -0.0005
vn -0.0115 0.9998 0.0162
vn 0.6047 0.4800 0.6355
vn -0.2863 0.0017 -0.9581
vn -0.1695 0.0265 -0.9852
vn 0.0075 0.9878 -0.1552
vn -0.0201 0.9998 -0.0035
vn 0.0062 0.9998 -0.0214
vn 0.0034 1.0000 0.0009
vn 0.0000 1.0000 0.0032
vn 0.0000 0.0000 1.0000
vn -0.0216 0.9963 0.0831
vn -0.0166 0.9968 0.0776
vn 0.0224 0.0245 0.9994
vn 0.1714 0.9852 -0.0071
vn 0.0116 0.9929 -0.1187
vn 0.0374 0.9968 0.0701
vn 0.0015 1.0000 0.0008
vn -0.9999 0.0000 -0.0132
vn 0.2889 0.9572 0.0170
vn 0.1747 0.9798 0.0969
vn 0.0243 0.9927 0.1178
vn 0.0272 0.9990 -0.0365
vn 0.0191 0.9998 -0.0083
vn -0.0204 0.9995 0.0250
vn 0.0975 0.9946 -0.0345
vn 0.0808 0.9963 -0.0304
vn 0.6949 0.0396 0.7180
vn -0.0003 0.9975 0.0710
vn 0.6994 -0.0101 -0.7147
vn -0.0093 1.0000 0.0021
vn 0.0028 1.0000 0.0003
vn 0.1845 0.8416 0.5076
vn 0.0308 0.9966 0.0763
vn 0.0060 1.0000 0.0000
vn -0.1313 0.9913 0.0000
vn -0.0003 1.0000 0.0004
vn 0.9452 -0.0354 -0.3247
vn 0.9903 0.1228 0.0650
vn -0.7110 0.0757 -0.6991
vn 0.0010 0.0000 1.0000
vn 1.0000 -0.0000 -0.0000
vn -0.0549 0.9983 -0.0172
vn 0.7600 -0.0218 -0.6495
vn 0.7499 0.0000 -0.6616
vn 0.6690 0.5160 0.5350
vn 0.7838 0.0000 0.6210
vn -0.7565 0.0030 -0.6540
vn 0.0003 1.0000 0.0000
vn -0.0029 1.0000 0.0005
vn 0.7762 0.0009 0.6305
vn 0.3874 0.1090 -0.9155
vn 0.0017 0.0202 0.9998
vn -0.6660 0.0936 -0.7400
vn -0.2980 -0.0062 -0.9545
vn 0.9801 -0.0068 -0.1986
vn 0.1182 0.1287 0.9846
vn 0.9474 0.0354 0.3181
vn -0.0002 1.0000 -0.0048
vn -0.0016 1.0000 0.0016
vn 0.0061 1.0000 0.0018
vn -0.9958 -0.0244 0.0880
vn 0.0060 1.0000 0.0015
vn -0.0131 0.0000 -0.9999
vn -0.0170 -0.0074 0.9998
vn -0.9795 0.1467 0.1381
vn -0.3527 0.1145 0.9287
vn 0.3155 0.9252 0.2110
vn -0.1847 -0.0201 -0.9826
vn 0.0305 0.0087 0.9995
vn 0.0533 0.9902 0.1290
vn -0.1796 -0.0721 -0.9811
vn -0.9981 0.0138 0.0599
vn 0.0102 0.9999 -0.0001
vn 0.1270 0.9915 -0.0301
vn 0.2446 0.9692 -0.0278
vn 0.0863 0.9954 0.0422
vn 0.0106 0.9999 -0.0086
vn 0.0098 0.9999 -0.0077
vn -1.0000 0.0000 -0.0011
vn 0.0000 -0.0022 1.0000
vn -0.2665 0.0961 -0.9590
vn 0.9853 -0.0112 0.1704
vn -0.6692 0.0428 -0.7419
vn 0.0022 1.0000 0.0004
vn 0.1763 -0.0394 0.9836
vn 0.1456 0.9480 0.2830
vn 0.8207 0.5033 0.2703
vn 0.1055 0.9944 -0.0089
vn 0.0640 0.9968 0.0478
vn 0.1271 0.9515 0.2802
vn 1.0000 0.0032 -0.0005
vn -0.0074 0.9990 0.0446
vn -0.0604 0.9982 -0.0059
vn 0.1696 0.8510 0.4970
vn 0.0135 0.9978 0.0643
vn 1.0000 -0.0030 0.0011
vn 0.6939 0.0347 0.7192
vn -0.6794 0.0580 -0.7315
vn 0.1606 0.8613 0.4820
vn 0.0671 0.8015 0.5942
vn 0.0007 1.0000 -0.0001
vn -0.9877 0.0000 0.1562
vn -0.0000 1.0000 -0.0003
vn -0.0557 -0.0190 -0.9983
vn -0.9727 0.0042 -0.2320
vn 0.9856 0.0116 -0.1688
vn -0.9978 -0.0617 0.0231
vn 0.0257 0.0000 0.9997
vn 0.9038 0.1129 -0.4127
vn 1.0000 0.0000 -0.0067
vn -0.8263 -0.0175 0.5630
vn 0.2104 0.0900 0.9735
vn -0.0419 -0.0095 -0.9991
vn -0.1079 0.1668 -0.9801
vn 0.6014 0.0000 -0.7989
vn 0.7142 0.0225 0.6996
vn 0.7352 -0.0048 0.6778
vn -0.4372 -0.0496 0.8980
vn 0.7957 0.0000 0.6058
vn 0.7140 0.0369 -0.6991
usemtl None
s off
f 32/1/1 128/2/1 17/3/1
f 76/4/2 132/5/2 77/6/2
f 34/7/3 129/8/3 83/9/3
f 25/10/4 113/11/4 75/12/4
f 66/13/5 60/14/5 38/15/5
f 2/16/5 56/17/5 57/18/5
f 56/17/5 2/16/5 41/19/5
f 12/20/5 45/21/5 44/22/5
f 43/23/5 12/20/5 31/24/5
f 44/22/5 45/21/5 51/25/5
f 44/22/5 51/25/5 53/26/5
f 44/22/5 53/26/5 9/27/5
f 2/16/5 44/22/5 9/27/5
f 48/28/6 134/29/6 46/30/6
f 46/31/7 136/32/7 13/33/7
f 29/34/8 48/28/8 37/35/8
f 75/12/9 124/36/9 74/37/9
f 53/26/5 51/25/5 28/38/5
f 69/39/6 97/40/6 67/41/6
f 55/42/10 101/43/10 54/44/10
f 41/19/5 55/42/5 54/44/5
f 2/16/5 55/42/5 41/19/5
f 29/34/11 37/35/11 7/45/11
f 61/46/12 51/25/12 59/47/12
f 28/38/5 61/46/5 60/14/5
f 28/38/5 60/14/5 62/48/5
f 54/44/5 28/38/5 40/49/5
f 8/50/5 27/51/5 57/18/5
f 2/16/5 57/18/5 11/52/5
f 7/45/13 37/35/13 64/53/13
f 63/54/14 59/47/14 64/53/14
f 28/38/15 102/55/15 53/26/15
f 67/41/5 66/13/5 24/56/5
f 27/51/5 66/13/5 67/41/5
f 67/41/5 24/56/5 69/39/5
f 40/49/16 104/57/16 54/44/16
f 70/58/17 37/35/17 76/4/17
f 26/59/18 37/35/18 71/60/18
f 38/15/19 75/12/19 74/37/19
f 66/13/20 38/15/20 74/37/20
f 66/13/21 74/37/21 23/61/21
f 57/18/22 108/62/22 69/39/22
f 73/63/23 76/4/23 21/64/23
f 73/63/24 70/58/24 76/4/24
f 51/25/25 111/65/25 59/47/25
f 74/37/26 20/66/26 36/67/26
f 37/35/27 22/68/27 76/4/27
f 21/64/28 76/4/28 77/6/28
f 81/69/29 79/70/29 83/9/29
f 109/71/30 23/61/30 72/72/30 96/73/30
f 18/74/31 82/75/31 5/76/31
f 18/74/32 19/77/32 82/75/32
f 18/74/33 36/67/33 19/77/33
f 69/39/34 18/74/34 86/78/34
f 17/3/35 35/79/35 3/80/35
f 35/79/36 22/68/36 3/80/36
f 5/76/37 83/9/37 84/81/37
f 82/75/38 83/9/38 5/76/38
f 77/6/39 129/8/39 34/7/39
f 33/82/40 5/76/40 84/81/40
f 22/68/41 131/83/41 76/4/41
f 87/84/42 32/1/42 3/80/42
f 87/84/43 3/80/43 14/85/43
f 86/78/44 85/86/44 87/84/44
f 86/78/45 4/87/45 11/52/45
f 14/85/46 3/80/46 1/88/46
f 4/87/47 88/89/47 11/52/47
f 37/35/48 3/80/48 22/68/48
f 94/90/5 102/55/5 101/43/5
f 102/55/5 94/90/5 103/91/5
f 105/92/5 100/93/5 90/94/5
f 90/94/5 100/93/5 106/95/5
f 116/96/5 135/97/5 115/98/5
f 111/65/5 116/96/5 115/98/5
f 113/11/5 121/99/5 114/100/5
f 113/11/5 114/100/5 122/101/5
f 124/36/5 52/102/5 65/103/5
f 113/11/5 52/102/5 124/36/5
f 112/104/5 124/36/5 65/103/5
f 68/105/5 112/104/5 65/103/5
f 64/53/49 121/99/49 63/54/49
f 6/106/50 68/105/50 20/66/50
f 58/107/51 115/98/51 29/34/51
f 128/2/5 129/8/5 130/108/5
f 133/109/5 129/8/5 127/110/5
f 129/8/5 128/2/5 127/110/5
f 84/81/52 127/110/52 32/1/52
f 118/111/5 134/29/5 135/97/5
f 31/24/53 16/112/53 43/23/53
f 87/84/54 85/86/54 33/82/54
f 94/90/55 9/27/55 53/26/55 103/91/55
f 27/51/5 62/48/5 66/13/5
f 117/113/56 30/114/56 43/23/56 16/112/56
f 64/53/57 59/47/57 7/45/57
f 2/16/5 9/27/5 55/42/5
f 118/111/58 49/115/58 50/116/58 119/117/58
f 2/16/5 12/20/5 44/22/5
f 30/114/5 45/21/5 43/23/5
f 45/21/5 12/20/5 43/23/5
f 10/118/5 45/21/5 30/114/5
f 51/25/5 45/21/5 10/118/5
f 135/97/59 47/119/59 29/34/59 115/98/59
f 48/28/60 46/30/60 37/35/60
f 29/34/61 47/119/61 48/28/61
f 116/96/62 10/118/62 30/114/62 117/113/62
f 114/100/63 26/59/63 71/60/63 122/101/63
f 98/120/64 38/15/64 60/14/64 93/121/64
f 104/57/65 40/49/65 62/48/65 106/95/65
f 53/26/66 102/55/66 103/91/66
f 93/121/67 60/14/67 61/46/67 89/122/67
f 112/104/68 6/106/68 74/37/68 124/36/68
f 57/18/5 56/17/5 8/50/5
f 101/43/69 55/42/69 9/27/69 94/90/69
f 58/107/70 29/34/70 7/45/70
f 28/38/5 51/25/5 61/46/5
f 40/49/5 28/38/5 62/48/5
f 8/50/5 62/48/5 27/51/5
f 69/39/6 108/62/6 97/40/6
f 63/54/71 25/10/71 38/15/71 39/123/71
f 64/53/72 37/35/72 26/59/72
f 126/124/73 78/125/73 79/70/73 125/126/73
f 59/47/74 63/54/74 39/123/74 61/46/74
f 92/127/7 27/51/7 67/41/7 97/40/7
f 62/48/5 60/14/5 66/13/5
f 110/128/75 66/13/75 23/61/75 109/71/75
f 90/94/76 8/50/76 56/17/76 105/92/76
f 57/18/22 107/129/22 108/62/22
f 65/103/77 80/130/77 81/69/77 68/105/77
f 54/44/78 101/43/78 91/131/78
f 11/52/5 57/18/5 69/39/5
f 71/60/79 37/35/79 70/58/79
f 123/132/80 73/63/80 21/64/80 52/102/80
f 59/47/81 111/65/81 120/133/81
f 38/15/5 25/10/5 75/12/5
f 69/39/5 24/56/5 72/72/5
f 73/63/82 71/60/82 70/58/82
f 122/101/83 71/60/83 73/63/83 123/132/83
f 120/133/84 42/134/84 7/45/84 59/47/84
f 74/37/85 36/67/85 72/72/85 23/61/85
f 20/66/86 74/37/86 6/106/86
f 36/67/87 20/66/87 19/77/87
f 21/64/88 77/6/88 34/7/88 78/125/88
f 69/39/89 36/67/89 18/74/89
f 69/39/90 72/72/90 36/67/90
f 32/1/91 127/110/91 128/2/91
f 84/81/92 133/109/92 127/110/92
f 52/102/93 21/64/93 78/125/93 126/124/93
f 6/106/94 112/104/94 68/105/94
f 131/83/95 22/68/95 35/79/95 130/108/95
f 81/69/96 80/130/96 79/70/96
f 81/69/97 20/66/97 68/105/97
f 19/77/98 81/69/98 82/75/98
f 19/77/99 20/66/99 81/69/99
f 34/7/100 79/70/100 78/125/100
f 83/9/101 79/70/101 34/7/101
f 5/76/102 33/82/102 85/86/102 18/74/102
f 84/81/103 83/9/103 133/109/103
f 82/75/104 81/69/104 83/9/104
f 32/1/105 87/84/105 33/82/105 84/81/105
f 86/78/106 18/74/106 85/86/106
f 11/52/107 69/39/107 86/78/107
f 83/9/108 129/8/108 133/109/108
f 77/6/109 132/5/109 129/8/109
f 130/108/110 35/79/110 17/3/110 128/2/110
f 14/85/111 4/87/111 86/78/111 87/84/111
f 1/88/112 88/89/112 4/87/112 14/85/112
f 32/1/113 17/3/113 3/80/113
f 15/135/7 31/136/7 13/33/7 136/32/7
f 134/29/114 48/28/114 47/119/114 135/97/114
f 46/30/6 134/29/6 136/137/6
f 99/138/5 98/120/5 93/121/5 89/122/5
f 37/35/115 46/30/115 3/80/115
f 91/131/5 101/43/5 102/55/5
f 100/93/5 104/57/5 106/95/5
f 97/40/5 108/62/5 107/129/5 92/127/5
f 109/71/5 96/73/5 95/139/5 110/128/5
f 89/122/116 61/46/116 39/123/116 99/138/116
f 99/138/117 39/123/117 38/15/117 98/120/117
f 105/92/118 56/17/118 41/19/118 100/93/118
f 102/55/119 28/38/119 54/44/119 91/131/119
f 96/73/120 72/72/120 24/56/120 95/139/120
f 100/93/121 41/19/121 54/44/121 104/57/121
f 95/139/122 24/56/122 66/13/122 110/128/122
f 107/129/53 57/18/53 27/51/53 92/127/53
f 106/95/123 62/48/123 8/50/123 90/94/123
f 119/117/5 118/111/5 116/96/5 117/113/5
f 116/96/5 118/111/5 135/97/5
f 115/98/5 42/134/5 120/133/5 111/65/5
f 123/132/5 52/102/5 113/11/5 122/101/5
f 52/102/5 126/124/5 125/126/5 65/103/5
f 113/11/124 25/10/124 63/54/124 121/99/124
f 115/98/125 58/107/125 7/45/125 42/134/125
f 121/99/126 64/53/126 26/59/126 114/100/126
f 117/113/127 30/114/127 50/116/127 119/117/127
f 75/12/128 113/11/128 124/36/128
f 111/65/129 51/25/129 10/118/129 116/96/129
f 125/126/130 79/70/130 80/130/130 65/103/130
f 118/111/131 135/97/131 47/119/131 49/115/131
f 129/8/5 132/5/5 130/108/5
f 130/108/5 132/5/5 131/83/5
f 76/4/132 131/83/132 132/5/132
f 119/117/5 117/113/5 16/112/5
f 136/137/5 16/112/5 15/140/5
f 134/29/5 16/112/5 136/137/5
f 134/29/5 119/117/5 16/112/5
f 118/111/5 119/117/5 134/29/5
f 31/24/53 15/140/53 16/112/53
